<svg width="97" height="96" viewBox="0 0 97 96" fill="none" xmlns="http://www.w3.org/2000/svg">
<path d="M64.3334 19.1301C63.724 18.5449 63.002 18.0897 62.2112 17.7923C61.4204 17.4949 60.5774 17.3615 59.7334 17.4001C56.8734 17.4001 55.1134 18.5101 55.1134 20.4001C55.1134 22.5101 57.2534 23.8001 59.7334 23.8001" stroke="#E0EBF5" stroke-width="2" stroke-linecap="round" stroke-linejoin="round"/>
<path d="M59.7334 15.0901V32.4201" stroke="#E0EBF5" stroke-width="2" stroke-linecap="round" stroke-linejoin="round"/>
<path d="M55.1134 28.37C55.7238 28.9597 56.4488 29.4175 57.2436 29.7151C58.0384 30.0127 58.8859 30.1437 59.7334 30.1C62.5934 30.1 64.3334 29 64.3334 27.16C64.3334 25.05 62.1934 23.75 59.7134 23.75" stroke="#E0EBF5" stroke-width="2" stroke-linecap="round" stroke-linejoin="round"/>
<path d="M31.5334 9V26.16C31.5308 26.3675 31.4873 26.5724 31.4055 26.7631C31.3237 26.9538 31.2051 27.1265 31.0565 27.2714C30.9079 27.4163 30.7323 27.5304 30.5396 27.6074C30.3468 27.6844 30.1409 27.7226 29.9334 27.72H12.3334" stroke="#E0EBF5" stroke-width="2" stroke-linecap="round" stroke-linejoin="round"/>
<path d="M73.1334 87.0001H13.9334C13.7259 87.0028 13.5199 86.9645 13.3272 86.8876C13.1345 86.8106 12.9588 86.6964 12.8103 86.5515C12.6617 86.4067 12.5431 86.234 12.4613 86.0433C12.3794 85.8526 12.336 85.6476 12.3334 85.4401V27.7201L31.5334 9.00013H71.5334C71.7409 8.99749 71.9468 9.03574 72.1396 9.11271C72.3323 9.18968 72.5079 9.30386 72.6565 9.44872C72.8051 9.59358 72.9237 9.76629 73.0055 9.95699C73.0873 10.1477 73.1308 10.3526 73.1334 10.5601V34.0001" stroke="#E0EBF5" stroke-width="2" stroke-linecap="round" stroke-linejoin="round"/>
<path d="M84.4533 80.7602H58.6033C58.2178 80.7629 57.8469 80.613 57.5715 80.3432C57.2961 80.0734 57.1386 79.7057 57.1333 79.3202V41.6402C57.1346 41.4485 57.1737 41.2589 57.2483 41.0823C57.3228 40.9056 57.4315 40.7454 57.568 40.6108C57.7045 40.4761 57.8662 40.3697 58.0438 40.2975C58.2215 40.2254 58.4116 40.1889 58.6033 40.1902H84.4533C84.645 40.1889 84.8351 40.2254 85.0128 40.2975C85.1904 40.3697 85.3521 40.4761 85.4886 40.6108C85.6251 40.7454 85.7338 40.9056 85.8083 41.0823C85.8829 41.2589 85.922 41.4485 85.9233 41.6402V79.3202C85.922 79.5115 85.8829 79.7006 85.8082 79.8767C85.7335 80.0528 85.6247 80.2123 85.488 80.3462C85.3514 80.48 85.1896 80.5855 85.012 80.6566C84.8344 80.7276 84.6446 80.7629 84.4533 80.7602V80.7602Z" stroke="#E0EBF5" stroke-width="2" stroke-linecap="round" stroke-linejoin="round"/>
<path d="M57.1333 52.6802H85.9233" stroke="#E0EBF5" stroke-width="2" stroke-linecap="round" stroke-linejoin="round"/>
<path d="M57.1333 71.4001H85.9233" stroke="#E0EBF5" stroke-width="2" stroke-linecap="round" stroke-linejoin="round"/>
<path d="M57.1333 62H85.9233" stroke="#E0EBF5" stroke-width="2" stroke-linecap="round" stroke-linejoin="round"/>
<path d="M76.3334 52.6802V80.7602" stroke="#E0EBF5" stroke-width="2" stroke-linecap="round" stroke-linejoin="round"/>
<path d="M66.7334 52.6802V80.7602" stroke="#E0EBF5" stroke-width="2" stroke-linecap="round" stroke-linejoin="round"/>
<path d="M25.1333 48.0002V52.6802" stroke="#E0EBF5" stroke-width="2" stroke-linecap="round" stroke-linejoin="round"/>
<path d="M44.3334 34V52.68" stroke="#E0EBF5" stroke-width="2" stroke-linecap="round" stroke-linejoin="round"/>
<path d="M37.9333 41.7603V52.6803" stroke="#E0EBF5" stroke-width="2" stroke-linecap="round" stroke-linejoin="round"/>
<path d="M50.7234 37.0801V52.6801" stroke="#E0EBF5" stroke-width="2" stroke-linecap="round" stroke-linejoin="round"/>
<path d="M31.5334 40.2V52.68" stroke="#E0EBF5" stroke-width="2" stroke-linecap="round" stroke-linejoin="round"/>
<path d="M25.1333 62H50.7233" stroke="#E0EBF5" stroke-width="2" stroke-linecap="round" stroke-linejoin="round"/>
<path d="M25.1333 68.2803H50.7233" stroke="#E0EBF5" stroke-width="2" stroke-linecap="round" stroke-linejoin="round"/>
<path d="M25.1333 74.52H50.7233" stroke="#E0EBF5" stroke-width="2" stroke-linecap="round" stroke-linejoin="round"/>
</svg>
