<svg width="96" height="96" viewBox="0 0 96 96" fill="none" xmlns="http://www.w3.org/2000/svg">
<line x1="23.9656" y1="39.6553" x2="12.7242" y2="39.6553" stroke="#E0EBF5" stroke-width="2" stroke-linecap="round"/>
<line x1="23.9656" y1="33.0344" x2="17.138" y2="33.0344" stroke="#E0EBF5" stroke-width="2" stroke-linecap="round"/>
<line x1="23.9656" y1="46.2759" x2="17.138" y2="46.2759" stroke="#E0EBF5" stroke-width="2" stroke-linecap="round"/>
<line x1="8.51721" y1="39.6553" x2="4.99997" y2="39.6553" stroke="#E0EBF5" stroke-width="2" stroke-linecap="round"/>
<line x1="11.8276" y1="33.0344" x2="9.41384" y2="33.0344" stroke="#E0EBF5" stroke-width="2" stroke-linecap="round"/>
<line x1="11.8276" y1="46.2759" x2="9.41384" y2="46.2759" stroke="#E0EBF5" stroke-width="2" stroke-linecap="round"/>
<path d="M64.5212 33.1383C63.2672 31.8843 60.6188 31.8843 59.5053 31.8843C57.4287 31.8843 54.4894 33.1383 54.4894 35.6562C54.4894 38.1742 57.4387 39.4282 59.5053 39.4282" stroke="#E0EBF5" stroke-width="2" stroke-linecap="round" stroke-linejoin="round"/>
<path d="M54.4777 45.6881C55.1699 46.4606 58.38 46.9421 59.4936 46.9421C61.5702 46.9421 64.5095 45.6881 64.5095 43.1702C64.5095 40.6522 61.5601 39.3982 59.4936 39.3982" stroke="#E0EBF5" stroke-width="2" stroke-linecap="round" stroke-linejoin="round"/>
<path d="M59.4937 28.1123V49.45" stroke="#E0EBF5" stroke-width="2" stroke-linecap="round" stroke-linejoin="round"/>
<path d="M90.8744 21H27.1724V56.5226" stroke="#E0EBF5" stroke-width="2" stroke-linecap="round" stroke-linejoin="round"/>
<path d="M27.1724 56.5728H62.4827M91.1956 21V46.931" stroke="#E0EBF5" stroke-width="2" stroke-linecap="round" stroke-linejoin="round"/>
<circle cx="79.4261" cy="61.4598" r="11.7701" stroke="#E0EBF5" stroke-width="2"/>
<path d="M81.2617 54.262C79.7896 53.9883 78.2857 54.0991 76.8916 54.5567M74.5347 55.7442C74.2029 55.9796 73.8856 56.2393 73.5859 56.5225" stroke="#E0EBF5" stroke-width="2" stroke-linecap="round"/>
<line x1="79.1617" y1="48.6897" x2="79.1617" y2="46.2759" stroke="#E0EBF5" stroke-width="2" stroke-linecap="round"/>
<line x1="77.4836" y1="45.7471" x2="81.3687" y2="45.7471" stroke="#E0EBF5" stroke-width="2" stroke-linecap="round"/>
<path d="M79.4261 61.4595L85.1615 55.7241" stroke="#E0EBF5" stroke-width="2" stroke-linecap="round" stroke-linejoin="round"/>
</svg>
