<svg width="63" height="63" viewBox="0 0 63 63" fill="none" xmlns="http://www.w3.org/2000/svg">
<path d="M22.0959 10.6296C24.9663 9.34486 28.1488 8.62961 31.5027 8.62961C34.6071 8.62961 37.5644 9.24241 40.263 10.3521C41.1007 10.6966 42.059 10.2967 42.4035 9.45902C42.748 8.62132 42.3481 7.663 41.5104 7.31855C38.4229 6.04895 35.0424 5.34961 31.5027 5.34961C27.678 5.34961 24.0396 6.16607 20.7559 7.63577C19.9292 8.00579 19.559 8.97594 19.929 9.80266C20.299 10.6294 21.2692 10.9996 22.0959 10.6296Z" fill="#08C177"/>
<path d="M48.0584 11.2044C47.3544 10.6345 46.3218 10.7432 45.7519 11.4472C45.182 12.1512 45.2908 13.1839 45.9948 13.7538C50.5734 17.46 53.7004 22.8797 54.4038 29.0322C54.5066 29.9321 55.3195 30.5782 56.2194 30.4753C57.1193 30.3725 57.7654 29.5596 57.6625 28.6597C56.8581 21.623 53.2816 15.4323 48.0584 11.2044Z" fill="#08C177"/>
<path d="M16.8908 13.8514C17.591 13.2769 17.6928 12.2435 17.1183 11.5433C16.5437 10.8431 15.5103 10.7413 14.8101 11.3158C9.66143 15.5406 6.14017 21.6846 5.34279 28.6597C5.23992 29.5596 5.88603 30.3725 6.78592 30.4753C7.6858 30.5782 8.4987 29.9321 8.60157 29.0322C9.29876 22.9335 12.3774 17.5549 16.8908 13.8514Z" fill="#08C177"/>
<path d="M8.79384 35.6646C8.63847 34.7723 7.78915 34.1749 6.89683 34.3302C6.00451 34.4856 5.40709 35.3349 5.56245 36.2272C6.71284 42.8343 10.3235 48.5917 15.4103 52.5245C16.1269 53.0785 17.1569 52.9467 17.7109 52.2301C18.2649 51.5136 18.1331 50.4836 17.4165 49.9296C12.9574 46.4821 9.79949 41.4404 8.79384 35.6646Z" fill="#08C177"/>
<path d="M57.4429 36.2272C57.5983 35.3349 57.0008 34.4856 56.1085 34.3302C55.2162 34.1749 54.3669 34.7723 54.2115 35.6646C53.2058 41.4404 50.048 46.4821 45.5888 49.9296C44.8722 50.4836 44.7405 51.5136 45.2945 52.2301C45.8484 52.9467 46.8784 53.0785 47.595 52.5245C52.6818 48.5917 56.2925 42.8343 57.4429 36.2272Z" fill="#08C177"/>
<path d="M16.0007 32.4193C16.0007 23.4763 23.2504 16.2265 32.1934 16.2265C32.8266 16.2265 33.4507 16.2628 34.0639 16.3332C34.9637 16.4366 35.777 15.791 35.8803 14.8911C35.9837 13.9913 35.3381 13.1781 34.4382 13.0747C33.7011 12.99 32.952 12.9465 32.1934 12.9465C21.4389 12.9465 12.7207 21.6648 12.7207 32.4193C12.7207 33.1779 12.7641 33.9269 12.8488 34.6641C12.9522 35.5639 13.7655 36.2096 14.6653 36.1062C15.5651 36.0028 16.2108 35.1895 16.1074 34.2897C16.037 33.6766 16.0007 33.0525 16.0007 32.4193Z" fill="#08C177"/>
<path fill-rule="evenodd" clip-rule="evenodd" d="M25.0679 36.4823C25.0679 32.9249 27.9517 30.0411 31.5091 30.0411C35.0664 30.0411 37.9502 32.9249 37.9502 36.4823C37.9502 36.6853 37.9408 36.8861 37.9224 37.0844L45.9994 41.2668C46.8037 41.6833 47.1181 42.6729 46.7016 43.4772C46.2852 44.2815 45.2955 44.5959 44.4912 44.1794L36.7794 40.1861C35.6137 41.8417 33.6877 42.9234 31.5091 42.9234C27.9517 42.9234 25.0679 40.0396 25.0679 36.4823ZM31.5091 33.3211C29.7632 33.3211 28.3479 34.7364 28.3479 36.4823C28.3479 38.2281 29.7632 39.6434 31.5091 39.6434C33.2549 39.6434 34.6702 38.2281 34.6702 36.4823C34.6702 34.7364 33.2549 33.3211 31.5091 33.3211Z" fill="#08C177"/>
</svg>
