<?xml version="1.0" encoding="UTF-8"?>
<svg width="86px" height="54px" viewBox="0 0 86 54" version="1.1" xmlns="http://www.w3.org/2000/svg" xmlns:xlink="http://www.w3.org/1999/xlink">
    <title>2</title>
    <g id="2" stroke="none" stroke-width="1" fill="none" fill-rule="evenodd">
        <g id="np_agreement_3203589_000000" fill="#000000" fill-rule="nonzero">
            <path d="M9.9459,21.4839 C12.37167,23.03433 10.047852,26.67294 7.61859,25.1226 C5.19282,23.57217 7.520148,19.93356 9.9459,21.4839" id="Path"></path>
            <path d="M85.3209,22.1418 L72.9918,2.7918 C72.362502,1.80036 71.46252,1.17108 70.2918,0.90036 C69.21252,0.629658 68.0418,0.90036 67.05036,1.441764 L62.1918,4.500324 C61.20036,5.129622 60.57108,6.029604 60.30036,7.200324 C60.208956,7.829622 60.208956,8.371044 60.30036,9.000324 C57.50892,9.450324 54.72108,9.271026 52.02108,8.371026 L48.2418,7.112466 C45.81252,6.30387 43.20036,6.933168 41.4918,8.553906 L38.3418,8.103906 C36.27108,7.833204 34.20036,8.19531 32.31252,9.183186 L31.05396,9.903888 C30.15396,10.445292 28.98324,10.445292 28.08324,10.083186 L25.92468,9.183186 C26.103978,8.553888 26.103978,7.924626 26.016084,7.203906 C25.745382,6.124626 25.116084,5.133186 24.124644,4.503906 L19.266084,1.445346 C17.286804,0.186786 14.674644,0.724644 13.416084,2.703906 L1.079784,22.142106 C0.450486,23.133546 0.271188,24.212826 0.53838,25.383546 C0.809082,26.462826 1.43838,27.454266 2.42982,28.083546 L7.28838,31.142106 C8.009082,31.592106 8.81766,31.771404 9.53838,31.771404 C10.97982,31.771404 12.32982,31.050702 13.13838,29.792124 L13.229784,29.612826 L15.929784,31.412826 C14.488344,33.121386 14.579784,35.733546 16.200486,37.354266 C17.009082,38.162862 18.000486,38.612826 19.171206,38.612826 C19.171206,39.692106 19.621206,40.771386 20.429766,41.583546 C21.238362,42.392142 22.321206,42.842106 23.400486,42.842106 C23.400486,43.921386 23.850486,45.000666 24.659046,45.812826 C25.467642,46.621422 26.550486,47.071386 27.629766,47.071386 C27.629766,48.150666 28.079766,49.229946 28.888326,50.042106 C29.788326,50.942106 30.867606,51.300666 32.038326,51.300666 C33.209046,51.300666 34.288326,50.850666 35.188326,50.042106 L36.538326,48.692106 L38.609046,51.212826 L38.70045,51.30423 C39.69189,52.29567 41.04189,52.92495 42.47973,52.92495 C43.92117,52.92495 45.27117,52.383546 46.25901,51.30423 C47.15901,50.40423 47.70045,49.23351 47.78829,47.97495 C49.49685,48.333546 51.29685,47.795652 52.55901,46.62495 L52.650414,46.533546 C53.550414,45.633546 54.091854,44.462826 54.179694,43.204266 C55.888254,43.562862 57.779694,43.024968 59.038254,41.762826 C59.938254,40.862826 60.479694,39.692106 60.567534,38.342106 C61.017534,38.43351 61.37613,38.43351 61.826094,38.43351 C63.267534,38.43351 64.617534,37.804212 65.605374,36.72495 C66.326076,35.916354 66.776094,35.01639 66.955374,33.93351 L73.434654,29.97495 C74.24325,31.05423 75.505374,31.68351 76.855374,31.68351 C77.66397,31.68351 78.476094,31.504212 79.105374,31.054212 L83.963934,27.995652 C84.955374,27.366354 85.584654,26.466372 85.855374,25.295652 C86.129595,24.209352 85.8588903,23.042142 85.320999,22.142142 L85.3209,22.1418 Z M10.7091,28.25901 C10.2591,28.888308 9.45054,29.067606 8.72982,28.70901 L3.87126,25.65045 C3.512664,25.471152 3.329856,25.109046 3.241962,24.75045 C3.150558,24.391854 3.241962,24.029748 3.42126,23.67117 L15.75036,4.32117 C16.20036,3.691872 17.00892,3.512574 17.72964,3.87117 L22.5882,6.92973 C22.946796,7.109028 23.129604,7.471134 23.217498,7.82973 C23.308902,8.188326 23.217498,8.550432 23.0382,8.90901 L10.7091,28.25901 Z M18.17982,35.37108 C17.550522,34.741782 17.550522,33.75036 18.17982,33.21252 L21.77982,29.61252 C22.050522,29.341818 22.500522,29.16252 22.8591,29.16252 C23.217696,29.16252 23.667696,29.341818 23.93838,29.61252 C24.567678,30.241818 24.567678,31.23324 23.93838,31.77108 L20.33838,35.37108 C19.800486,36.000378 18.8091,36.000378 18.17982,35.37108 L18.17982,35.37108 Z M22.4091,39.60036 C21.779802,38.971062 21.779802,37.97964 22.4091,37.4418 L26.72982,33.12108 C27.000522,32.850378 27.450522,32.67108 27.8091,32.67108 C28.2591,32.67108 28.617696,32.850378 28.88838,33.12108 C29.159082,33.391782 29.33838,33.841782 29.33838,34.20036 C29.33838,34.65036 29.159082,35.008956 28.88838,35.27964 L24.6591,39.60036 C24.029802,40.229658 23.04189,40.229658 22.4091,39.60036 L22.4091,39.60036 Z M26.64189,43.82964 C26.012592,43.200342 26.012592,42.20892 26.64189,41.67108 L30.24189,38.07108 C30.512592,37.800378 30.962592,37.62108 31.32117,37.62108 C31.679766,37.62108 32.129766,37.800378 32.40045,38.07108 C32.671134,38.341782 32.85045,38.791782 32.85045,39.15036 C32.85045,39.60036 32.671152,39.958956 32.40045,40.22964 L28.80045,43.82964 C28.259046,44.458938 27.27117,44.458938 26.64189,43.82964 L26.64189,43.82964 Z M35.90919,45.17964 L33.02991,48.05892 C32.488506,48.600324 31.40919,48.688218 30.87135,48.05892 C30.600648,47.788218 30.42135,47.338218 30.42135,46.97964 C30.42135,46.52964 30.600648,46.171044 30.87135,45.90036 L33.75063,43.02108 C34.021332,42.750378 34.471332,42.57108 34.82991,42.57108 C35.27991,42.57108 35.638506,42.750378 35.90919,43.02108 C36.541998,43.558974 36.541998,44.55036 35.90919,45.17964 L35.90919,45.17964 Z M63.54189,34.82964 C63.09189,35.27964 62.46261,35.550342 61.83333,35.550342 L61.741926,35.550342 C61.021224,35.550342 60.300486,35.27964 59.762646,34.741746 L59.129838,34.200342 L55.529838,30.600342 C54.988434,30.058938 54.088398,30.058938 53.550558,30.600342 C53.009154,31.141746 53.009154,32.041782 53.550558,32.579622 L57.150558,36.179622 C57.600558,36.629622 57.779856,37.258902 57.779856,37.888182 C57.779856,38.608884 57.509154,39.238182 57.059154,39.688182 C56.067714,40.679622 54.450594,40.679622 53.459154,39.688182 L49.950594,36.179622 C49.40919,35.638218 48.509154,35.638218 47.971314,36.179622 C47.42991,36.721026 47.42991,37.621062 47.971314,38.158902 L50.671314,40.858902 C51.662754,41.850342 51.662754,43.379622 50.762718,44.367462 C50.762718,44.367462 50.671314,44.367462 50.671314,44.458866 C49.679874,45.450306 48.062754,45.450306 47.071314,44.458866 L44.550594,41.938146 C44.00919,41.396742 43.109154,41.396742 42.571314,41.938146 C42.02991,42.47955 42.02991,43.379586 42.571314,43.917426 L44.371314,45.717426 C44.821314,46.167426 45.000612,46.796706 45.000612,47.425986 C45.000612,48.055284 44.72991,48.775986 44.27991,49.225986 C43.37991,50.217426 41.67135,50.217426 40.77135,49.31739 L38.52135,46.61739 C39.69207,44.90883 39.60063,42.47595 38.07135,40.94667 C37.442052,40.317372 36.62991,39.86739 35.82135,39.77595 C35.82135,39.596652 35.912754,39.32595 35.912754,39.146652 C35.912754,37.975932 35.462754,36.896652 34.654194,35.996652 C34.024896,35.367354 33.212754,34.917372 32.404194,34.825932 C32.404194,34.646634 32.495598,34.375932 32.495598,34.196634 C32.495598,33.025914 32.045598,31.946634 31.237038,31.046634 C30.428442,30.238038 29.257758,29.788074 28.087038,29.788074 C27.90774,29.788074 27.637038,29.788074 27.45774,29.879478 C27.278442,29.070882 26.916336,28.258758 26.28702,27.629478 C24.57846,25.920918 21.78702,25.920918 20.07846,27.629478 L18.27846,29.429478 L15.03702,27.270918 L24.93702,11.791818 L27.3663,12.783258 C29.1663,13.50396 31.14558,13.412556 32.85774,12.512556 L34.1163,11.791854 C35.37486,11.071152 36.90774,10.800414 38.34558,10.983258 L39.9663,11.25396 C39.0663,12.87468 38.43702,14.58324 37.98702,16.38324 C37.445616,18.72468 38.795616,21.06252 41.13702,21.87468 L41.228424,21.87468 C43.207704,22.416084 45.278424,21.603978 46.357704,19.8954 L47.528424,18.00396 L49.236984,18.724662 C53.378424,20.433222 57.066264,23.133222 59.857884,26.553942 L63.637164,31.233222 L63.728568,31.324626 C64.178568,31.774626 64.44927,32.403906 64.44927,33.124626 C64.171539,33.750405 63.900828,34.379676 63.54225,34.829676 L63.54189,34.82964 Z M66.5091,30.87108 C66.238398,30.329676 65.879802,29.7918 65.51766,29.3418 L61.73838,24.75036 C58.58838,20.87964 54.53838,17.90892 49.94658,16.02108 L47.42586,15.02964 C46.617264,14.671044 45.7173,15.02964 45.2673,15.750342 L43.55874,18.450342 C43.10874,19.07964 42.38802,19.441782 41.6673,19.171044 C40.7673,18.900342 40.22586,17.912484 40.40874,17.012484 C40.85874,15.121044 41.57946,13.321044 42.65874,11.703924 L42.838038,11.433222 C43.829478,9.991782 45.629478,9.362502 47.338038,9.903942 L51.117318,11.162502 C54.538038,12.333222 58.225878,12.512502 61.738218,11.7918 L71.909118,27.7209 L66.5091,30.87108 Z M83.0709,24.75036 C82.979496,25.108956 82.800198,25.471062 82.441602,25.65036 L77.583042,28.70892 C76.953744,29.15892 76.053762,28.888218 75.603762,28.25892 L63.359262,8.90892 C63.179964,8.550324 63.08856,8.188218 63.179964,7.82964 C63.271368,7.471044 63.450666,7.108938 63.809262,6.92964 L68.667822,3.87108 C68.938524,3.691782 69.117822,3.691782 69.388524,3.691782 L69.659226,3.691782 C70.017822,3.783186 70.379928,3.962484 70.559226,4.32108 L82.888326,23.67108 C83.071134,23.941782 83.159028,24.391782 83.071134,24.75036 L83.0709,24.75036 Z" id="Shape"></path>
            <path d="M79.3935,22.1625 C80.94393,24.59178 77.30172,26.91558 75.75129,24.48981 C74.20086,22.06053 77.84307,19.73673 79.3935,22.1625" id="Path"></path>
        </g>
    </g>
</svg>