<?xml version="1.0" encoding="UTF-8"?>
<svg width="93px" height="72px" viewBox="0 0 93 72" version="1.1" xmlns="http://www.w3.org/2000/svg" xmlns:xlink="http://www.w3.org/1999/xlink">
    <title>3</title>
    <defs>
        <polygon id="path-1" points="0 -2.27373675e-13 85.795248 -2.27373675e-13 85.795248 70.7116872 0 70.7116872"></polygon>
    </defs>
    <g id="3" stroke="none" stroke-width="1" fill="none" fill-rule="evenodd">
        <g id="Group-5" transform="translate(3.000000, 1.000017)">
            <mask id="mask-2" fill="white">
                <use xlink:href="#path-1"></use>
            </mask>
            <g id="Clip-2"></g>
            <path d="M44.676912,67.3165752 L61.306392,67.3165752 L61.306392,60.6857832 L44.676912,60.6857832 L44.676912,67.3165752 Z M24.55908,67.3106952 L41.190408,67.3106952 L41.190408,60.6805752 L24.55908,60.6805752 L24.55908,67.3106952 Z M44.609712,57.2532072 L58.75968,57.2532072 C58.273656,55.5303672 59.397744,54.6584472 60.460848,53.7112632 C62.5884,51.8162232 64.655136,49.8529752 66.78588,47.9617992 C69.335784,45.6986712 71.283576,43.0183992 72.630768,39.8893992 C75.784968,32.5635912 78.948744,25.2419832 82.110336,17.9193672 C82.6098,16.7626872 82.505808,16.0098792 81.78156,15.6372552 C81.077304,15.2748792 80.351208,15.6238152 79.692816,16.6968312 C77.328048,20.5509192 74.971848,24.4102152 72.626904,28.2763992 C72.478224,28.5215112 72.430176,28.8376872 72.376416,29.1284952 C72.20472,30.0551832 72.241008,31.0720872 71.86032,31.8993192 C70.195272,35.5182072 68.437152,39.0954312 66.655344,42.6590472 C66.109176,43.7512152 65.086728,44.0347992 64.214136,43.5183672 C63.340704,43.0015992 63.189168,42.0297192 63.779688,40.9605672 C64.629096,39.4223592 65.527056,37.9053192 66.27516,36.3182232 C67.224864,34.3032312 68.064192,32.2349832 68.908896,30.1724472 C69.138552,29.6119992 69.171144,28.9846872 68.484528,28.6490232 C67.815552,28.3220952 67.32264,28.6065192 66.894744,29.1538632 C66.034584,30.2537592 65.108064,31.3034232 64.277976,32.4249912 C60.682272,37.2833832 56.645232,41.6673432 51.527112,45.0019752 C50.096928,45.9337032 48.83508,47.1913512 47.683608,48.4684872 C45.47844,50.9145672 44.50068,53.8617912 44.609712,57.2532072 L44.609712,57.2532072 Z M0,16.2176952 C0.064344,16.0073592 0.131544,15.7978632 0.192696,15.5866872 C1.186248,12.1457112 5.305944,11.0184312 7.8834,13.5076872 C8.378496,13.9858152 8.788584,14.5729752 9.152808,15.1623192 C11.163096,18.4163112 13.146336,21.6867672 15.141,24.9503352 C15.298752,25.2083832 15.472464,25.4568552 15.631896,25.6996152 C18.413304,24.6585192 19.988808,25.0924632 21.845208,27.3937272 C23.581824,29.5464792 25.3302,31.6899912 27.023808,33.8760072 C27.340488,34.2845832 27.566616,34.8717432 27.577536,35.3819592 C27.592152,36.0694152 27.104448,36.5700552 26.430264,36.7716552 C25.680312,36.9959352 25.0572,36.7365432 24.573864,36.1352712 C22.911168,34.0668552 21.250824,31.9962552 19.589136,29.9269992 C19.32672,29.6002392 19.06884,29.2694472 18.796512,28.9512552 C18.399864,28.4875752 17.844792,28.3115112 17.389176,28.6806072 C17.094,28.9198392 16.854936,29.4932232 16.919952,29.8579512 C17.060064,30.6423432 17.34012,31.4243832 17.691408,32.1447672 C19.145616,35.1262632 20.635776,38.0907912 22.141392,41.0469192 C22.486464,41.7246312 22.61448,42.3569832 22.17264,43.0153752 C21.7938,43.5800232 21.219408,43.8824232 20.587392,43.6957752 C20.12136,43.5580152 19.58292,43.2433512 19.337472,42.8463672 C17.130288,39.2763672 15.332352,35.4997272 13.874112,31.5651672 C13.663944,30.9979992 13.47864,30.3574152 13.529544,29.7722712 C13.610184,28.8481032 13.191528,28.1761032 12.75456,27.4636152 C10.609536,23.9648472 8.476944,20.4585192 6.329232,16.9614312 C6.09756,16.5841032 5.830776,16.2146712 5.518296,15.9040392 C5.081832,15.4702632 4.535496,15.3476232 3.992184,15.7036152 C3.471048,16.0449912 3.289272,16.5499992 3.472056,17.1628632 C3.511872,17.2964232 3.550176,17.4316632 3.605112,17.5591752 C6.818112,25.0140072 10.034136,32.4673272 13.246632,39.9223272 C14.583408,43.0242792 16.51692,45.6845592 19.043472,47.9315592 C21.256536,49.8996792 23.401056,51.9450792 25.627224,53.8979112 C26.646144,54.7918392 27.50328,55.6829112 27.09504,57.2390952 L41.38344,57.2390952 C41.192256,55.9436472 41.09364,54.6475272 40.79712,53.3982792 C40.19148,50.8466952 38.746848,48.7787832 36.829128,47.0240232 C36.581832,46.7977272 36.321432,46.5838632 36.090432,46.3419432 C35.407176,45.6262632 35.375424,44.6898312 35.996688,44.0069112 C36.609552,43.3333992 37.570512,43.2593112 38.33256,43.8862872 C40.007688,45.2645592 41.42292,46.8729912 42.51072,48.7586232 C42.621768,48.9509832 42.740544,49.1388072 42.859656,49.3262952 C42.87024,49.3427592 42.909888,49.3409112 42.7518,49.3004232 C44.108568,47.6923272 45.294144,46.0271112 46.744824,44.6389272 C48.270432,43.1790072 49.999152,41.9127912 51.729216,40.6892472 C54.704496,38.5852152 57.216936,36.0458952 59.407824,33.1468872 C60.889248,31.1863272 62.476008,29.3052312 64.020432,27.3925512 C65.877,25.0933032 67.414032,24.6675912 70.237944,25.6952472 C70.454496,25.3590792 70.685496,25.0160232 70.90104,24.6633912 C72.881088,21.4236792 74.855256,18.1804392 76.837824,14.9424072 C77.737632,13.4730792 78.930264,12.3731832 80.722992,12.1956072 C84.317016,11.8392792 86.796696,15.2728632 85.399944,18.6941832 C84.240072,21.5347272 83.02392,24.3527592 81.80088,27.1667592 C79.588488,32.2576632 77.371224,37.3465512 75.118848,42.4199832 C73.759896,45.4811112 71.696016,48.0303432 69.221544,50.2665912 C66.982944,52.2898152 64.759968,54.3306792 62.539176,56.3737272 C62.316072,56.5790232 62.156808,56.8537032 61.868352,57.2238072 C62.285832,57.2636232 62.494992,57.2958792 62.704824,57.3014232 C64.098216,57.3380472 64.7094,57.9312552 64.712928,59.3023032 C64.720992,62.4319752 64.72032,65.5618152 64.713264,68.6914872 C64.71024,70.0774872 64.092504,70.7084952 62.728344,70.7089992 C49.539,70.7126952 36.349656,70.7123592 23.160312,70.7093352 C21.7854,70.7089992 21.1512,70.0838712 21.146832,68.7158472 C21.137256,65.6700072 21.142632,62.6241672 21.144144,59.5783272 C21.145152,57.8588472 21.656376,57.3429192 23.38812,57.3017592 C23.497992,57.2992392 23.607864,57.2859672 23.95344,57.2600952 C23.70144,56.8940232 23.56536,56.5939752 23.342424,56.3881752 C21.104664,54.3224472 18.870768,52.2518472 16.599744,50.2229112 C13.911408,47.8208472 11.818128,44.9917272 10.385256,41.6893512 C7.053984,34.0124232 3.745392,26.3257512 0.433944,18.6402552 C0.259896,18.2365512 0.143304,17.8083192 0,17.3913432 C0,17.0000712 0,16.6089672 0,16.2176952 L0,16.2176952 Z" id="Fill-1" fill="#000000" mask="url(#mask-2)"></path>
            <path d="M31.2295032,42.2169102 C30.2920632,42.221424 29.5716792,41.53044 29.5439592,40.600392 C29.5170792,39.692856 30.3370872,38.872848 31.2515112,38.892672 C32.1561912,38.912328 32.8843032,39.668664 32.8755672,40.57956 C32.8666632,41.522544 32.1731592,42.212352 31.2295032,42.2169102" id="Fill-3" fill="#000000" mask="url(#mask-2)"></path>
            <path d="M34.6795512,2.765784 C36.4845432,2.765784 38.2858392,3.478944 39.6869592,4.9056 L42.4235112,7.685832 C42.6872712,7.953288 43.0457832,8.10432 43.4205912,8.10432 C43.7972472,8.10432 44.1555912,7.953288 44.4176712,7.685832 L47.1251592,4.920216 C49.9290792,2.065392 54.3506712,2.065392 57.1542552,4.920216 C59.9581752,7.77504 59.9581752,12.342288 57.1542552,15.196608 C52.5727272,19.862136 47.9947272,24.534552 43.4131992,29.199576 L29.6719752,15.181656 C26.8699032,12.323304 26.8682232,7.759752 29.6719752,4.905264 C31.0730952,3.478776 32.8743912,2.765448 34.6793832,2.765448 L34.6795512,2.765784 Z M34.6795512,-2.27373675e-13 C32.1412392,-2.27373675e-13 29.6046072,0.993552 27.6781512,2.954952 C23.8243992,6.879768 23.8297752,13.22076 27.6781512,17.147424 L42.4090632,32.169648 C42.6728232,32.437104 43.0313352,32.588136 43.4061432,32.588136 C43.7827992,32.588136 44.1411432,32.437104 44.4032232,32.169648 C49.3197432,27.164088 54.2325672,22.167432 59.1485832,17.161872 C63.0023352,13.237224 63.0023352,6.894384 59.1485832,2.9694 C55.2948312,-0.955248 48.9849192,-0.955248 45.1308312,2.9694 L43.4131992,4.716264 L41.6809512,2.954952 C39.7539912,0.993552 37.2176952,-2.27373675e-13 34.6795512,-2.27373675e-13 L34.6795512,-2.27373675e-13 Z" id="Fill-4" fill="#000000" mask="url(#mask-2)"></path>
        </g>
    </g>
</svg>