<svg width="96" height="96" viewBox="0 0 96 96" fill="none" xmlns="http://www.w3.org/2000/svg">
<path d="M81 65.3601L74 60.5001V38.2201H71.61C70.9954 38.2192 70.4038 38.4541 69.9573 38.8764C69.5107 39.2988 69.2433 39.8763 69.21 40.4901V40.4901V37.7901V36.4501V34.0501H66.82C66.5058 34.0461 66.1939 34.1044 65.9023 34.2216C65.6107 34.3388 65.3452 34.5126 65.1212 34.7329C64.8971 34.9533 64.7189 35.2158 64.5969 35.5054C64.4748 35.7949 64.4113 36.1058 64.41 36.4201V33.6201V31.2201H62.06C61.7458 31.2148 61.4336 31.2718 61.1415 31.3877C60.8494 31.5037 60.5832 31.6764 60.3582 31.8958C60.1332 32.1152 59.9539 32.377 59.8307 32.6661C59.7074 32.9552 59.6426 33.2658 59.64 33.5801V34.7601H57.24C56.9261 34.7574 56.6148 34.8166 56.3238 34.9343C56.0329 35.052 55.7679 35.2258 55.5441 35.4459C55.3203 35.666 55.1421 35.928 55.0195 36.217C54.897 36.5059 54.8326 36.8162 54.83 37.1301L54.74 47.3601C54.7427 46.7296 54.4962 46.1237 54.0541 45.6742C53.6121 45.2246 53.0104 44.968 52.38 44.9601H49.99V47.3601V48.6601L49.92 56.2801V57.2801C49.9028 58.704 50.1666 60.1173 50.6963 61.4391C51.226 62.7609 52.0112 63.9653 53.0069 64.9833C54.0026 66.0014 55.1894 66.813 56.4991 67.3718C57.8089 67.9307 59.216 68.2257 60.64 68.2401L71.89 75.8601" stroke="#E0EBF5" stroke-width="2" stroke-miterlimit="10"/>
<path d="M54.75 47.3799L54.66 57.9799" stroke="#E0EBF5" stroke-width="2" stroke-linecap="round" stroke-linejoin="round"/>
<path d="M59.64 34.74L59.53 48.63" stroke="#E0EBF5" stroke-width="2" stroke-linecap="round" stroke-linejoin="round"/>
<path d="M64.4101 36.0801L64.3101 48.6701" stroke="#E0EBF5" stroke-width="2" stroke-linecap="round" stroke-linejoin="round"/>
<path d="M69.16 40.47L69.08 50.7" stroke="#E0EBF5" stroke-width="2" stroke-linecap="round" stroke-linejoin="round"/>
<path d="M19.88 73.3901L31.77 66.2901C33.1939 66.3033 34.6065 66.0355 35.9268 65.5022C37.2471 64.9688 38.4492 64.1803 39.4644 63.1818C40.4797 62.1833 41.288 60.9944 41.8432 59.6832C42.3984 58.3719 42.6896 56.964 42.7 55.5401L42.81 42.5401V39.2901C42.8207 38.6579 42.5805 38.0472 42.1419 37.5918C41.7034 37.1363 41.1022 36.8732 40.47 36.8601H38.07V35.6801C38.0727 35.047 37.8251 34.4385 37.3812 33.9871C36.9373 33.5357 36.3331 33.278 35.7 33.2701H33.3V32.4401C33.2901 31.8294 33.0458 31.246 32.6177 30.8104C32.1896 30.3749 31.6104 30.1205 31 30.1001H28.61V32.4901V35.4101C28.5893 34.7946 28.3308 34.211 27.8889 33.7821C27.4469 33.3532 26.8559 33.1123 26.24 33.1101H23.85V35.4601V36.7801V43.5601C23.7636 43.5505 23.6764 43.5505 23.59 43.5601H21.19V45.9501V47.2701L20.92 54.8601V55.8601C20.9148 56.328 20.9416 56.7958 21 57.2601H20.9L12.9 61.7701" stroke="#E0EBF5" stroke-width="2" stroke-miterlimit="10"/>
<path d="M38.05 36.6199L38 47.2699" stroke="#E0EBF5" stroke-width="2" stroke-linecap="round" stroke-linejoin="round"/>
<path d="M33.2901 33.1401L33.1801 46.5701" stroke="#E0EBF5" stroke-width="2" stroke-linecap="round" stroke-linejoin="round"/>
<path d="M28.49 35.3901L28.39 47.2001" stroke="#E0EBF5" stroke-width="2" stroke-linecap="round" stroke-linejoin="round"/>
<path d="M21 57.25C21.1825 58.7827 21.6899 60.2587 22.4883 61.5797C23.2867 62.9006 24.3578 64.036 25.63 64.91" stroke="#E0EBF5" stroke-width="2" stroke-linecap="round" stroke-linejoin="round"/>
<path d="M23.67 43.54C24.2533 43.611 24.7903 43.8936 25.1792 44.3341C25.5681 44.7746 25.7819 45.3424 25.78 45.93V48.22V53.64C27.2794 53.6532 28.7123 54.2609 29.7641 55.3296C30.8159 56.3982 31.4007 57.8406 31.39 59.34" stroke="#E0EBF5" stroke-width="2" stroke-linecap="round" stroke-linejoin="round"/>
<path d="M10.77 53.0798C10.2014 52.5007 9.75234 51.8153 9.4486 51.0626C9.14485 50.31 8.99234 49.5049 8.99977 48.6933C9.0072 47.8817 9.17442 47.0795 9.49189 46.3325C9.80937 45.5856 10.2709 44.9084 10.85 44.3398" stroke="#E0EBF5" stroke-width="2" stroke-linecap="round" stroke-linejoin="round"/>
<path d="M14 51.1499C13.3069 50.4561 12.9176 49.5156 12.9176 48.5349C12.9176 47.5543 13.3069 46.6137 14 45.9199" stroke="#E0EBF5" stroke-width="2" stroke-linecap="round" stroke-linejoin="round"/>
<path d="M85.23 48.28C85.7987 48.8591 86.2477 49.5446 86.5515 50.2972C86.8552 51.0499 87.0077 51.855 87.0003 52.6666C86.9929 53.4782 86.8256 54.2804 86.5082 55.0274C86.1907 55.7743 85.7292 56.4514 85.15 57.02" stroke="#E0EBF5" stroke-width="2" stroke-linecap="round" stroke-linejoin="round"/>
<path d="M82 50.22C82.3429 50.5626 82.6149 50.9695 82.8005 51.4174C82.986 51.8652 83.0816 52.3452 83.0816 52.83C83.0816 53.3147 82.986 53.7947 82.8005 54.2426C82.6149 54.6904 82.3429 55.0973 82 55.44" stroke="#E0EBF5" stroke-width="2" stroke-linecap="round" stroke-linejoin="round"/>
<path d="M47.4899 21L47.4399 27.86" stroke="#E0EBF5" stroke-width="2" stroke-linecap="round" stroke-linejoin="round"/>
<path d="M35.83 24.8599L40.18 29.2899" stroke="#E0EBF5" stroke-width="2" stroke-linecap="round" stroke-linejoin="round"/>
<path d="M59.44 25.03L55 29.38" stroke="#E0EBF5" stroke-width="2" stroke-linecap="round" stroke-linejoin="round"/>
<path d="M81 65.3699L74 60.4999V38.2199H71.6C70.9854 38.219 70.3938 38.4539 69.9473 38.8763C69.5008 39.2986 69.2333 39.8762 69.2 40.4899V40.4899V37.7899V36.4499V34.0499H66.8C66.4858 34.046 66.1739 34.1043 65.8823 34.2215C65.5907 34.3387 65.3252 34.5125 65.1012 34.7328C64.8771 34.9531 64.6989 35.2157 64.5769 35.5052C64.4548 35.7948 64.3913 36.1057 64.39 36.4199V33.6199V31.2199H62.05C61.7366 31.216 61.4255 31.2739 61.1346 31.3905C60.8437 31.5071 60.5786 31.68 60.3547 31.8993C60.1308 32.1185 59.9524 32.3799 59.8297 32.6683C59.7071 32.9567 59.6426 33.2665 59.64 33.5799V34.7599H57.25C56.6159 34.7572 56.0064 35.0044 55.5534 35.4481C55.1004 35.8917 54.8405 36.496 54.83 37.1299L54.74 47.3599C54.7375 46.7293 54.4879 46.1249 54.0448 45.6762C53.6017 45.2275 53.0005 44.9704 52.37 44.9599H49.98V47.3599V48.6599L49.92 56.2799V57.2799C49.9028 58.703 50.1663 60.1155 50.6954 61.4367C51.2244 62.7579 52.0087 63.9618 53.0034 64.9797C53.9981 65.9976 55.1836 66.8094 56.4922 67.3688C57.8008 67.9282 59.2069 68.2242 60.63 68.2399L71.89 75.8599" stroke="#E0EBF5" stroke-width="2" stroke-linecap="round" stroke-linejoin="round"/>
<path d="M19.88 73.3701L31.78 66.2801C33.2039 66.2933 34.6164 66.0255 35.9367 65.4922C37.257 64.9588 38.4592 64.1703 39.4744 63.1718C40.4896 62.1733 41.298 60.9844 41.8532 59.6732C42.4084 58.3619 42.6995 56.954 42.71 55.5301L42.82 42.5301V39.2801C42.8254 38.6487 42.5817 38.0406 42.1418 37.5876C41.702 37.1346 41.1013 36.8732 40.47 36.8601H38.08V35.6701C38.084 35.3559 38.0256 35.044 37.9084 34.7524C37.7912 34.4608 37.6174 34.1954 37.3971 33.9713C37.1768 33.7472 36.9142 33.569 36.6247 33.447C36.3351 33.3249 36.0242 33.2614 35.71 33.2601H33.32V32.4301C33.3098 31.8171 33.0624 31.2318 32.6298 30.7973C32.1971 30.3629 31.613 30.1129 31 30.1001H28.61V32.4901V33.8101V35.4101C28.5918 34.7955 28.3355 34.212 27.8951 33.7828C27.4548 33.3536 26.8649 33.1124 26.25 33.1101H23.86V35.5001V36.8201L23.8 43.6001C23.7136 43.5898 23.6263 43.5898 23.54 43.6001H21.15V45.9901V47.3101L20.93 54.8601V55.8601C20.9215 56.3278 20.9449 56.7956 21 57.2601H20.92L12.86 61.7701" stroke="#E0EBF5" stroke-width="2" stroke-linecap="round" stroke-linejoin="round"/>
</svg>
