<svg width="59" height="59" viewBox="0 0 59 59" fill="none" xmlns="http://www.w3.org/2000/svg">
<path d="M16.9185 27.3551C16.9185 29.0234 18.271 30.3759 19.9394 30.3759C21.6077 30.3759 22.9602 29.0234 22.9602 27.3551C22.9602 25.6867 21.6077 24.3342 19.9394 24.3342C18.271 24.3342 16.9185 25.6867 16.9185 27.3551Z" fill="#08C177"/>
<path d="M26.5852 27.3551C26.5852 29.0234 27.9377 30.3759 29.606 30.3759C31.2744 30.3759 32.6269 29.0234 32.6269 27.3551C32.6269 25.6867 31.2744 24.3342 29.606 24.3342C27.9377 24.3342 26.5852 25.6867 26.5852 27.3551Z" fill="#08C177"/>
<path d="M29.606 38.8589C27.9377 38.8589 26.5852 37.5064 26.5852 35.8381C26.5852 34.1697 27.9377 32.8172 29.606 32.8172C31.2744 32.8172 32.6269 34.1697 32.6269 35.8381C32.6269 37.5064 31.2744 38.8589 29.606 38.8589Z" fill="#08C177"/>
<path d="M16.9185 35.8381C16.9185 37.5064 18.271 38.8589 19.9394 38.8589C21.6077 38.8589 22.9602 37.5064 22.9602 35.8381C22.9602 34.1697 21.6077 32.8172 19.9394 32.8172C18.271 32.8172 16.9185 34.1697 16.9185 35.8381Z" fill="#08C177"/>
<path d="M19.9394 47.7099C18.271 47.7099 16.9185 46.3574 16.9185 44.6891C16.9185 43.0207 18.271 41.6682 19.9394 41.6682C21.6077 41.6682 22.9602 43.0207 22.9602 44.6891C22.9602 46.3574 21.6077 47.7099 19.9394 47.7099Z" fill="#08C177"/>
<path d="M26.5852 44.6891C26.5852 46.3574 27.9377 47.7099 29.606 47.7099C31.2744 47.7099 32.6269 46.3574 32.6269 44.6891C32.6269 43.0207 31.2744 41.6682 29.606 41.6682C27.9377 41.6682 26.5852 43.0207 26.5852 44.6891Z" fill="#08C177"/>
<path d="M39.2881 30.3759C37.6198 30.3759 36.2673 29.0234 36.2673 27.3551C36.2673 25.6867 37.6198 24.3342 39.2881 24.3342C40.9565 24.3342 42.309 25.6867 42.309 27.3551C42.309 29.0234 40.9565 30.3759 39.2881 30.3759Z" fill="#08C177"/>
<path d="M36.2673 35.8381C36.2673 37.5064 37.6198 38.8589 39.2881 38.8589C40.9565 38.8589 42.309 37.5064 42.309 35.8381C42.309 34.1697 40.9565 32.8172 39.2881 32.8172C37.6198 32.8172 36.2673 34.1697 36.2673 35.8381Z" fill="#08C177"/>
<path d="M39.2881 47.7099C37.6198 47.7099 36.2673 46.3574 36.2673 44.6891C36.2673 43.0207 37.6198 41.6682 39.2881 41.6682C40.9565 41.6682 42.309 43.0207 42.309 44.6891C42.309 46.3574 40.9565 47.7099 39.2881 47.7099Z" fill="#08C177"/>
<path fill-rule="evenodd" clip-rule="evenodd" d="M18.0691 10.5918C17.235 10.5918 16.5587 11.268 16.5587 12.1022V19.8177C16.5587 20.6519 17.235 21.3281 18.0691 21.3281H41.1148C41.949 21.3281 42.6252 20.6519 42.6252 19.8177V12.1022C42.6252 11.268 41.949 10.5918 41.1148 10.5918H18.0691ZM19.5795 18.3073V13.6126H39.6044V18.3073H19.5795Z" fill="#08C177"/>
<path fill-rule="evenodd" clip-rule="evenodd" d="M11.3867 7.1556C11.3867 5.98775 12.3334 5.04102 13.5013 5.04102H45.682C46.8499 5.04102 47.7966 5.98774 47.7966 7.1556V50.8627C47.7966 52.0305 46.8499 52.9773 45.682 52.9773H13.5013C12.3335 52.9773 11.3867 52.0305 11.3867 50.8627V7.1556ZM14.4076 8.06185V49.9564H44.7758V8.06185H14.4076Z" fill="#08C177"/>
</svg>
