<?xml version="1.0" encoding="UTF-8"?>
<svg width="72px" height="72px" viewBox="0 0 72 72" version="1.1" xmlns="http://www.w3.org/2000/svg" xmlns:xlink="http://www.w3.org/1999/xlink">
    <title>1</title>
    <g id="1" stroke="none" stroke-width="1" fill="none" fill-rule="evenodd">
        <g id="np_globe_1803890_000000" transform="translate(3.000000, 3.000000)" fill="#000000" fill-rule="nonzero">
            <path d="M32.8,0 C14.7032,0 0,14.7032 0,32.8 C0,50.5752 14.1968,65.0656 31.8496,65.5752 C32.158976,65.6064496 32.480848,65.6002 32.7996,65.6002 C33.118352,65.6002 33.440224,65.6095752 33.7496,65.5752 C51.4024,65.065824 65.5992,50.5752 65.5992,32.8 C65.5992,14.7032 50.896,0 32.7992,0 L32.8,0 Z M31.2,3.42496 L31.2,15.20016 L21.9752,15.20016 C22.440824,13.86888 22.94392,12.59392 23.50016,11.45016 C25.69392,6.94704 28.41888,4.19392 31.20016,3.42536 L31.2,3.42496 Z M34.4,3.42496 C37.18128,4.193712 39.90624,6.9468 42.1,11.44976 C42.656248,12.59352 43.15936,13.86848 43.62496,15.19976 L34.40016,15.19976 L34.4,3.42496 Z M24.2248,4.47496 C22.86544,6.0312 21.66544,7.9156 20.6248,10.05 C19.859176,11.62504 19.16856,13.35936 18.5748,15.2 L8.9996,15.2 C12.74024,10.15 18.0588,6.3344 24.2244,4.4752 L24.2248,4.47496 Z M41.3752,4.47496 C47.5408,6.33432 52.8592,10.15 56.6,15.19976 L47.0248,15.19976 C46.431048,13.35912 45.7404,11.62472 44.9748,10.04976 C43.93416,7.91536 42.73416,6.03104 41.3748,4.47472 L41.3752,4.47496 Z M6.9504,18.39976 L17.6752,18.39976 C16.71272,22.29664 16.13456,26.62456 16.0252,31.19976 L3.25,31.19976 C3.496872,26.55912 4.81248,22.22776 6.95,18.39976 L6.9504,18.39976 Z M21,18.39976 L31.2,18.39976 L31.2,31.19976 L19.2496,31.19976 C19.368352,26.56848 19.990224,22.21816 20.9996,18.39976 L21,18.39976 Z M34.4,18.39976 L44.6,18.39976 C45.60936,22.21848 46.23128,26.56856 46.35,31.19976 L34.3996,31.19976 L34.4,18.39976 Z M47.9248,18.39976 L58.6496,18.39976 C60.78712,22.22792 62.10272,26.55896 62.3496,31.19976 L49.5744,31.19976 C49.465024,26.62472 48.886896,22.29656 47.9244,18.39976 L47.9248,18.39976 Z M3.2496,34.39976 L16.0248,34.39976 C16.134176,38.9716 16.715424,43.29656 17.6748,47.19976 L6.9244,47.19976 C4.79624,43.37792 3.49624,39.02776 3.24936,34.39976 L3.2496,34.39976 Z M19.2496,34.39976 L31.2,34.39976 L31.2,47.19976 L20.9752,47.19976 C19.96896,43.37792 19.36896,39.02456 19.25024,34.39976 L19.2496,34.39976 Z M34.4,34.39976 L46.3504,34.39976 C46.231648,39.02472 45.631648,43.37816 44.62544,47.19976 L34.40064,47.19976 L34.4,34.39976 Z M49.5752,34.39976 L62.3504,34.39976 C62.103528,39.02792 60.80352,43.37816 58.67536,47.19976 L47.92496,47.19976 C48.88432,43.29664 49.4656,38.97176 49.57496,34.39976 L49.5752,34.39976 Z M8.9752,50.39976 L18.5504,50.39976 C19.147272,52.26224 19.8504,53.98416 20.62544,55.5748 C21.65672,57.6904 22.85672,59.58104 24.20048,61.1248 C18.038,59.2592 12.71328,55.45608 8.97568,50.4 L8.9752,50.39976 Z M21.9504,50.39976 L31.2,50.39976 L31.2,62.17496 C28.41872,61.412464 25.69376,58.67496 23.5,54.17496 C22.934376,53.0156 22.42184,51.75312 21.95,50.39992 L21.9504,50.39976 Z M34.4,50.39976 L43.6496,50.39976 C43.177728,51.75288 42.6652,53.01536 42.0996,54.1748 C39.90584,58.6748 37.18088,61.41232 34.3996,62.1748 L34.4,50.39976 Z M47.0496,50.39976 L56.6248,50.39976 C52.88728,55.456 47.5624,59.25896 41.4,61.12456 C42.74376,59.5808 43.94376,57.69016 44.97504,55.57456 C45.75004,53.98392 46.4532,52.26208 47.05008,50.39952 L47.0496,50.39976 Z" id="Shape"></path>
        </g>
    </g>
</svg>